<svg version="1.1" id="Layer_1" xmlns="http://www.w3.org/2000/svg" xmlns:xlink="http://www.w3.org/1999/xlink" x="0px" y="0px"
	 width="100%" viewBox="0 0 1024 336" enable-background="new 0 0 1024 336" xml:space="preserve">
<path fill="#000000" opacity="1.000000" stroke="none" 
	d="
M684.037231,176.236191 
	C678.794250,182.963577 676.017456,190.285446 675.067200,198.414001 
	C674.700439,201.550812 673.601562,204.590363 671.509827,207.099213 
	C669.004944,210.103790 668.866943,213.412415 669.998108,216.971283 
	C674.353394,230.674286 675.633057,244.529938 672.721863,258.764923 
	C671.167175,266.366760 673.024231,274.037476 673.467651,281.664886 
	C673.863098,288.466003 674.856934,295.231445 675.288513,302.031555 
	C675.544312,306.061859 677.301147,307.389801 681.095337,306.432312 
	C687.710083,304.763153 694.347168,303.179810 700.941589,301.434479 
	C703.758850,300.688812 706.671936,300.041382 709.227844,301.531555 
	C721.030029,308.412476 733.521179,305.636200 745.833557,304.199341 
	C763.570068,302.129456 781.200562,300.340027 798.991638,304.171143 
	C804.249573,305.303406 809.953735,304.896637 815.404724,304.509644 
	C841.682251,302.644043 867.983337,303.420807 894.241028,304.262390 
	C905.122314,304.611176 915.924194,307.560455 926.973328,307.190765 
	C927.783386,307.163635 928.625305,307.426819 929.418213,307.667511 
	C932.077393,308.474731 934.923340,309.693298 934.539490,312.862885 
	C934.153381,316.050751 930.906738,315.218353 928.771057,315.257385 
	C897.020569,315.837433 865.290771,317.049927 833.507690,316.380554 
	C803.027710,315.738647 772.518311,315.962921 742.030579,316.406921 
	C720.739136,316.716980 699.466797,318.458801 678.176758,318.682526 
	C670.642578,318.761688 663.030701,316.834869 655.364014,317.308289 
	C647.234558,317.810303 639.119751,318.784668 630.986877,318.939789 
	C620.389587,319.141907 609.786133,318.721588 599.205627,317.824493 
	C589.585388,317.008759 580.043091,317.307220 570.364563,318.343292 
	C560.685608,319.379333 550.756592,318.612976 540.972900,318.033142 
	C514.356018,316.455658 487.722382,316.082916 461.073944,316.326965 
	C432.918304,316.584808 404.752472,315.606934 376.608734,316.723663 
	C362.296661,317.291595 348.102203,315.328552 333.832031,315.465759 
	C328.842133,315.513733 323.857269,315.977173 318.866974,316.168213 
	C317.380676,316.225098 315.854492,316.150421 314.398865,315.867371 
	C312.610657,315.519623 311.423645,314.298126 311.204071,312.459259 
	C310.963287,310.442780 312.329254,309.445648 313.988678,308.820404 
	C317.143494,307.631714 320.457916,307.190491 323.792480,307.074219 
	C344.064758,306.367249 364.182312,302.433929 384.485474,303.337189 
	C399.288055,303.995728 414.120331,302.628326 428.892517,304.515961 
	C438.571106,305.752747 448.170197,304.186676 457.701996,302.615265 
	C471.418365,300.354034 484.928833,302.946869 498.503235,304.095276 
	C505.632233,304.698395 512.754517,305.380829 519.880798,306.016418 
	C524.553162,306.433197 528.810242,304.912933 532.812927,302.819366 
	C537.255310,300.495789 541.608215,300.394684 546.319153,301.879852 
	C551.072998,303.378540 555.996948,304.328766 560.796997,305.692871 
	C565.139343,306.926941 566.687073,305.603668 566.794434,300.965088 
	C567.014099,291.477875 566.502869,281.958527 567.656799,272.501404 
	C567.897583,270.528717 567.961182,268.444550 568.671631,266.633453 
	C573.574707,254.133698 570.832458,240.880859 572.574524,228.068542 
	C573.494751,221.300583 574.639587,214.589157 576.021057,207.920700 
	C579.156555,192.785797 579.543823,177.567505 577.890503,162.251022 
	C577.819031,161.588867 577.637573,160.895569 577.754639,160.262512 
	C579.453247,151.079132 574.578247,146.767883 566.602844,143.790497 
	C554.860291,139.406830 542.614746,136.915924 530.628174,133.495651 
	C520.750671,130.677155 512.602905,126.469002 507.169220,117.260880 
	C498.117920,101.922279 485.700623,88.894356 476.547058,73.588867 
	C474.669037,70.448608 472.726044,67.514359 476.565918,64.396767 
	C478.038116,63.201523 477.339874,61.576851 476.713165,60.246151 
	C475.367676,57.389282 474.201660,54.353558 472.345123,51.848312 
	C465.036072,41.985271 462.838043,30.367146 460.509979,18.768383 
	C460.424286,18.341522 460.713440,17.839424 460.880310,17.158485 
	C464.272980,16.688990 466.313629,18.187025 466.994843,21.361765 
	C468.996826,30.692095 476.493195,35.438038 483.149658,40.861012 
	C484.363617,41.850060 485.980591,42.954578 487.664337,41.505535 
	C489.140198,40.235386 488.943542,38.508724 488.577606,36.856030 
	C487.845886,33.551319 487.442047,30.355158 491.711548,26.569742 
	C491.612915,35.227470 495.667816,42.271332 493.062378,49.885578 
	C491.967407,53.085518 492.376862,55.639233 494.002411,58.377872 
	C497.014954,63.453243 498.709564,69.482101 504.801666,72.227180 
	C506.133362,72.827240 507.054443,74.492249 507.049164,75.968040 
	C507.031464,80.928276 510.223083,83.854004 513.511169,86.708412 
	C519.556702,91.956581 525.259827,97.545433 530.652527,103.456993 
	C531.942505,104.871124 533.529846,105.630203 535.449890,105.844269 
	C546.255127,107.048988 557.050537,108.344940 567.860535,109.504509 
	C573.392700,110.097923 578.822693,109.860710 583.889832,107.036781 
	C587.807983,104.853172 591.782104,103.749382 596.187927,106.239136 
	C598.229004,107.392578 600.564148,107.409569 602.459839,105.111946 
	C606.435608,100.293182 610.545837,95.529968 617.476074,96.570427 
	C618.295837,94.848114 617.529907,94.090065 616.788574,93.467621 
	C613.092651,90.364532 612.743164,87.250771 616.439514,83.839249 
	C617.976624,82.420532 618.490173,80.331123 618.559082,78.352119 
	C618.743103,73.062294 623.361755,69.321648 623.416992,63.990002 
	C623.422913,63.412411 624.430298,62.523918 625.128662,62.324909 
	C631.542725,60.496944 634.262207,54.322124 639.055054,50.599350 
	C641.228760,48.910969 642.141296,46.399021 642.899597,43.759811 
	C645.617249,34.301323 651.599548,31.345915 661.243896,34.065018 
	C666.556824,35.562943 670.785583,38.689568 675.026611,41.912445 
	C690.586914,53.737156 699.420532,71.244690 689.487122,91.273750 
	C686.762451,96.767509 685.645813,103.046936 679.593506,106.588615 
	C681.843506,109.845757 683.050476,113.458542 687.150635,115.038155 
	C685.920837,118.605698 685.887390,122.622169 682.866455,125.512161 
	C685.360291,129.161087 688.827393,129.741638 692.644531,129.775345 
	C700.027039,129.840530 701.325562,131.286148 703.300964,138.247665 
	C705.630310,146.456146 710.631653,153.115952 717.254333,158.406754 
	C720.302734,160.842133 723.008850,163.234833 724.518250,167.021454 
	C725.990173,170.713776 729.289429,172.868469 732.705139,174.773849 
	C744.425415,181.311676 757.049744,186.223251 769.854126,189.209015 
	C778.653076,191.260788 788.200134,193.243607 797.669800,191.988586 
	C798.436829,191.886932 799.385071,191.600845 799.857117,191.059021 
	C806.743591,183.153366 817.224609,185.293945 825.679626,181.798187 
	C826.725342,181.365860 828.049194,181.690735 828.613892,183.028610 
	C829.140686,184.276657 828.542908,185.311661 827.802063,186.237320 
	C825.759277,188.789505 822.691772,189.160645 819.810120,189.938019 
	C818.380615,190.323669 816.571655,190.575394 816.585510,192.488800 
	C816.599060,194.355301 818.361389,194.706360 819.802063,195.091370 
	C825.164978,196.524475 830.509583,197.569550 835.915955,195.092896 
	C837.359131,194.431763 839.040222,193.749069 840.622070,195.013794 
	C839.118591,202.604935 827.803589,211.444260 818.441284,212.214340 
	C815.459106,212.459610 812.446289,212.347015 809.447266,212.370346 
	C806.179932,212.395767 802.752808,211.588211 800.167908,214.644852 
	C799.737732,215.153549 798.628784,215.243637 797.827942,215.260361 
	C784.356262,215.541992 770.796753,215.588028 757.510315,213.747589 
	C743.731384,211.838959 731.038635,205.964340 719.492004,198.083633 
	C714.251709,194.507111 708.965576,191.088455 703.324951,188.169174 
	C697.975037,185.400421 693.052063,182.024857 689.297852,177.120987 
	C688.129517,175.594986 686.661438,173.040161 684.037231,176.236191 
z"/>
<path fill="#000000" opacity="1.000000" stroke="none" 
	d="
M210.880005,77.226212 
	C224.416183,78.751953 237.535706,78.667175 250.640808,77.210297 
	C258.164246,76.373940 260.488159,78.296959 260.344543,85.748360 
	C260.260254,90.119843 260.478821,94.392204 262.278809,98.477516 
	C262.733215,99.508835 263.205322,100.842690 262.931946,101.834213 
	C261.082031,108.543335 263.999634,114.210915 266.565704,119.995674 
	C267.387421,121.848106 269.459625,123.957344 266.848328,125.707161 
	C264.676270,127.162628 262.760925,125.534370 261.081970,124.092430 
	C253.661011,117.719101 244.898087,113.798912 235.395920,109.620644 
	C233.648865,117.703781 232.020325,125.238602 230.456619,132.473434 
	C232.422684,134.159576 234.163528,133.710373 235.770706,133.698456 
	C249.099640,133.599655 262.415985,133.930389 275.721863,134.709412 
	C276.386871,134.748352 277.065674,134.713913 277.714294,134.837906 
	C279.158966,135.114044 281.017365,135.187744 280.903778,137.221664 
	C280.793335,139.199799 279.031677,139.322021 277.507294,139.289017 
	C270.845886,139.144836 264.186310,138.916458 257.524902,138.772293 
	C249.533203,138.599335 241.538620,138.540192 233.548782,138.310806 
	C230.157715,138.213409 229.110626,139.925003 229.370148,142.955612 
	C229.856644,148.636856 231.173737,154.105835 233.455338,159.345947 
	C234.448654,161.627304 236.158554,162.597168 238.569534,162.572144 
	C260.438263,162.345215 282.216553,161.492386 302.906403,153.194443 
	C307.723907,151.262299 312.258209,148.786926 316.360687,145.604706 
	C323.230896,140.275574 323.333801,134.048615 316.476105,128.683701 
	C308.707550,122.606232 299.299896,120.934464 289.903809,119.369049 
	C287.443024,118.959076 284.956024,118.706703 282.494720,118.299423 
	C280.688477,118.000534 278.392365,117.736809 278.236847,115.566673 
	C278.053833,113.012863 280.545471,112.640160 282.446350,112.128784 
	C286.779999,110.962936 291.161194,109.968971 295.475555,108.738464 
	C297.497162,108.161865 299.724152,107.611603 300.454742,104.869514 
	C298.241150,101.684196 294.682343,101.214554 291.287537,100.935150 
	C286.205536,100.516899 280.881592,98.317551 276.261047,102.883026 
	C274.844971,104.282234 272.681854,103.631996 271.571716,101.763435 
	C270.423340,99.830574 271.245453,98.177376 272.960510,97.056084 
	C275.155731,95.620819 277.701508,95.685402 280.214630,95.669113 
	C288.085052,95.618118 295.913269,96.000137 303.128265,99.553696 
	C308.411957,102.156021 308.715057,107.088356 303.944763,110.528709 
	C301.095703,112.583458 297.739319,113.616302 293.961487,114.932098 
	C299.764954,116.587891 305.161926,117.918449 310.411987,119.685455 
	C315.491760,121.395149 320.220276,123.893600 323.918182,127.943558 
	C328.734650,133.218536 329.026001,139.562332 324.627716,145.183014 
	C320.507660,150.448196 314.918182,153.738510 308.913788,156.366776 
	C290.584320,164.389999 271.175446,166.789154 251.411423,167.282211 
	C247.917130,167.369385 244.421463,167.402008 240.927628,167.502167 
	C240.669006,167.509583 240.420212,167.860992 239.801987,168.328201 
	C244.143875,174.308304 250.450287,177.582382 256.559387,181.168671 
	C258.455566,182.281769 262.633972,182.523239 261.030792,185.833344 
	C259.431549,189.135376 256.277740,186.631729 254.093781,185.558945 
	C246.421295,181.790115 239.248489,177.242554 233.742905,170.536835 
	C231.820587,168.195480 229.649017,167.040939 226.531509,166.845001 
	C201.573181,165.276367 176.850555,162.069122 152.705505,155.307617 
	C147.585205,153.873734 142.574890,152.026245 137.568512,150.218079 
	C135.868591,149.604126 134.155945,148.743027 132.776154,147.600067 
	C131.220413,146.311340 128.639679,144.706039 130.599121,142.369751 
	C132.556808,140.035522 134.671951,141.495377 136.508118,143.354095 
	C139.547073,146.430389 143.684662,147.544724 147.609451,148.808624 
	C171.683670,156.561371 196.481766,160.270218 221.663544,161.720642 
	C222.989578,161.797043 224.325638,161.739960 225.654877,161.689056 
	C225.956100,161.677521 226.248367,161.432312 227.028275,161.070145 
	C224.490692,153.963226 223.257568,146.502197 223.085114,138.404175 
	C213.350113,138.185776 203.874512,138.442307 194.461578,137.389923 
	C192.139389,137.130310 189.820221,137.010361 187.593643,136.252335 
	C181.901978,134.314621 181.247696,130.825211 185.859070,126.804955 
	C188.929520,124.128098 192.760101,122.863808 197.509705,120.917984 
	C191.044952,120.345795 185.586258,120.046844 180.186462,119.313866 
	C177.076096,118.891655 172.618744,119.159409 172.617813,114.614807 
	C172.616928,110.268829 176.963715,110.647919 179.908966,110.243729 
	C188.302414,109.091850 196.722427,108.153397 205.744781,105.876694 
	C202.870438,104.517937 200.564728,104.351936 198.216675,104.302719 
	C188.390656,104.096794 178.568497,103.591698 168.735352,104.145172 
	C166.638123,104.263214 163.741913,104.625244 163.701797,101.623085 
	C163.667221,99.036255 166.474335,99.103363 168.387314,99.043205 
	C182.216003,98.608261 196.043152,98.548813 209.736374,100.920944 
	C212.232727,101.353401 215.655960,101.472588 215.957443,104.843666 
	C216.281784,108.469955 212.897415,109.360802 210.244247,110.074043 
	C202.241272,112.225426 194.072403,113.629959 185.814590,115.660141 
	C187.504364,115.660141 189.194504,115.683784 190.883835,115.656258 
	C201.058029,115.490509 211.197144,116.162262 221.322968,117.020264 
	C223.054321,117.166969 225.525742,117.256615 225.526489,119.639542 
	C225.527374,122.394173 223.018753,122.265526 221.018188,122.322868 
	C212.974197,122.553429 205.127853,123.889061 197.541824,126.588974 
	C194.777222,127.572906 192.017532,128.659805 189.516724,131.604904 
	C194.495453,133.519882 199.202408,133.063538 203.682236,133.477249 
	C209.137680,133.981064 214.671936,133.566269 220.165604,133.746674 
	C223.331726,133.850647 224.441589,132.503128 224.918198,129.438110 
	C225.734680,124.187218 227.051147,119.008461 228.285751,113.829941 
	C229.304260,109.557785 229.163528,105.969345 224.336731,103.977745 
	C222.507706,103.223045 220.630753,101.818153 221.673828,99.355858 
	C222.627029,97.105759 224.773849,97.228485 226.841309,97.412003 
	C229.991272,97.691589 232.755905,98.600281 234.169281,101.742317 
	C234.825394,103.200882 235.885239,104.100784 237.312469,104.769135 
	C243.769913,107.793114 250.198730,110.878197 256.849670,114.042030 
	C256.436646,109.913017 255.988419,105.988586 255.670074,102.053635 
	C255.458221,99.434990 253.656906,99.336990 251.744675,99.367584 
	C247.249237,99.439499 242.753143,99.651070 238.259918,99.595665 
	C236.373184,99.572403 233.635193,99.822166 233.555374,97.118553 
	C233.467041,94.125641 236.241837,94.819000 238.110535,94.770226 
	C241.940704,94.670242 245.783722,94.533249 249.603897,94.738365 
	C252.922775,94.916573 254.210968,93.974174 254.378159,90.344711 
	C254.778549,81.652611 254.674866,81.594116 245.704041,82.569328 
	C230.192932,84.255539 214.775360,83.751564 199.720337,79.098244 
	C196.176514,78.002892 192.865143,76.424561 190.900986,72.986351 
	C188.876160,69.441910 190.100266,66.522591 192.873703,64.126846 
	C195.501633,61.856808 202.484070,61.488674 204.245636,63.376759 
	C205.515717,64.738060 204.863174,65.940712 203.501755,66.571999 
	C202.496994,67.037918 201.251923,67.010094 200.107086,67.143372 
	C198.582672,67.320839 196.938538,67.455193 196.588226,69.298645 
	C196.261108,71.019905 197.562286,72.055542 198.792786,72.917915 
	C202.292587,75.370712 206.420776,76.133202 210.880005,77.226212 
z"/>
<path fill="#000000" opacity="1.000000" stroke="none" 
	d="
M390.715210,158.391754 
	C387.297089,156.941803 384.184174,155.744095 381.212677,154.262680 
	C379.654175,153.485718 377.521820,152.426529 378.786621,150.144440 
	C379.938507,148.066132 382.007568,148.733749 383.641479,149.656036 
	C392.277313,154.530746 401.772583,157.113617 411.126373,160.068741 
	C413.303955,160.756714 415.467499,161.759033 418.922516,161.121094 
	C415.345276,141.885681 406.893829,123.948906 405.098541,102.933472 
	C399.438873,109.833778 394.769531,115.403038 390.258484,121.097702 
	C388.796631,122.943077 387.969727,125.181259 388.536865,127.657822 
	C388.981140,129.597885 389.092041,131.562317 386.623077,131.960617 
	C384.281433,132.338379 382.974274,130.793503 382.348450,128.641479 
	C381.234100,124.809807 380.118439,120.978470 378.986572,117.151947 
	C377.424927,111.872368 375.559692,106.715271 372.774841,101.933868 
	C371.492645,99.732430 369.713593,98.014046 367.651978,96.547913 
	C366.536285,95.754494 365.442200,94.827477 366.259827,93.262184 
	C367.162231,91.534576 368.738678,91.775009 370.193848,92.290627 
	C374.555206,93.835976 377.129913,97.252686 379.288116,101.114342 
	C381.887085,105.764656 383.280945,110.922104 385.568939,116.865082 
	C391.482819,110.600487 396.655670,104.833115 401.391449,97.516373 
	C396.736847,97.267654 392.991333,97.201462 389.229980,97.810150 
	C387.919739,98.022186 386.586792,98.227165 385.266663,98.212601 
	C383.431213,98.192352 381.199829,98.138367 381.029205,95.756676 
	C380.839691,93.111115 383.278503,93.230103 384.999329,93.110512 
	C394.980408,92.416878 404.975800,92.436684 414.934418,93.348587 
	C418.328766,93.659401 421.845581,92.050598 425.151611,94.280708 
	C429.328461,97.098206 431.958618,100.972710 433.503265,106.096664 
	C435.858826,103.950401 436.515045,101.651825 436.825470,99.154945 
	C437.026337,97.539581 437.800171,96.232841 439.570526,96.088814 
	C441.199158,95.956322 442.525146,96.693474 443.124451,98.284409 
	C443.668488,99.728737 444.459961,100.949036 445.646210,101.930046 
	C449.506592,105.122375 452.334381,104.158554 453.575165,99.359985 
	C454.303009,96.545219 453.298889,92.074150 457.816772,92.123390 
	C462.311646,92.172379 461.758789,96.804970 461.987610,99.517326 
	C463.499908,117.444046 471.350037,133.005203 479.568970,148.468033 
	C482.070435,153.174149 484.461426,157.928040 486.215729,162.974869 
	C489.253784,171.714691 486.095734,177.073013 476.643463,177.684174 
	C466.460327,178.342560 456.459595,176.075134 446.514984,174.083618 
	C440.812164,172.941559 435.115204,171.671524 429.537201,170.042740 
	C426.279510,169.091507 424.317383,169.484604 422.670380,172.682877 
	C420.301941,177.282089 415.976959,179.466949 411.113708,180.647095 
	C409.396027,181.063904 407.467773,181.004593 406.801544,179.211716 
	C406.011688,177.086197 407.993347,176.417343 409.548462,175.813751 
	C413.445099,174.301300 417.415955,172.895004 418.057129,167.376297 
	C409.014984,164.410065 400.047058,161.468140 390.715210,158.391754 
M411.242767,101.989716 
	C411.754395,108.975029 413.378265,115.765053 414.902588,122.568298 
	C417.879059,135.852386 423.736450,148.378922 425.300415,162.036514 
	C425.473572,163.548935 426.325592,164.375351 427.788971,164.755203 
	C441.619934,168.345383 455.426453,172.195770 469.809174,172.700439 
	C481.686676,173.117233 483.305511,170.568741 478.232330,159.777786 
	C473.493713,149.698486 468.451599,139.761734 463.532990,129.767227 
	C460.159271,122.911804 458.823059,115.347961 456.500549,108.232513 
	C454.082031,108.527580 451.689697,109.610260 450.236542,108.864037 
	C442.722961,105.005630 438.010223,108.087967 434.253601,114.462585 
	C433.930328,115.011192 433.319214,115.405243 432.802124,115.821808 
	C430.963257,117.303230 429.099609,118.921295 426.559998,117.358871 
	C423.750763,115.630577 425.830444,113.574348 426.313416,111.655373 
	C427.357544,107.506790 426.929077,103.654587 423.716827,100.582153 
	C420.618103,97.618301 416.617706,98.222557 412.822540,98.298737 
	C410.818756,98.338966 411.064941,99.869728 411.242767,101.989716 
z"/>
<path fill="#000000" opacity="1.000000" stroke="none" 
	d="
M253.853546,240.941071 
	C283.797455,242.520020 313.286957,242.531921 342.749664,241.527328 
	C357.182983,241.035187 371.669922,239.830887 385.776215,236.163513 
	C389.167847,235.281738 392.532471,234.301346 395.607971,232.583969 
	C399.683807,230.307999 399.774475,228.375687 395.937927,225.594376 
	C393.071899,223.516632 389.745972,222.358429 386.445099,221.211746 
	C374.074829,216.914474 361.185974,214.580490 348.239990,214.597885 
	C337.674561,214.612091 327.404388,217.959976 317.346741,223.369888 
	C321.075562,226.626068 324.946808,226.536148 328.583405,226.518677 
	C334.568695,226.489899 340.549500,225.919739 346.536926,225.717056 
	C348.250580,225.659027 350.679932,225.224045 350.943146,227.752441 
	C351.215607,230.369553 348.835388,230.261551 347.051575,230.469131 
	C337.760620,231.550247 328.458588,232.027710 319.198486,230.296066 
	C315.776215,229.656097 311.650299,229.055664 311.030579,224.923721 
	C310.339355,220.314850 314.221191,218.326645 317.795074,216.762177 
	C321.129242,215.302628 324.602386,214.160660 328.230408,212.797729 
	C325.886200,211.749893 323.634399,210.940048 321.583069,209.776718 
	C319.008423,208.316589 319.129578,205.671906 319.598511,203.051346 
	C318.680573,202.725952 318.101532,202.429550 317.489197,202.320847 
	C315.720917,202.006897 313.277222,202.146484 313.316406,199.756165 
	C313.359833,197.107178 316.055481,197.116821 317.917877,196.961853 
	C333.498047,195.665375 349.067383,193.610687 364.737244,195.687866 
	C367.372162,196.037170 370.004913,196.471039 372.596497,197.053558 
	C374.207886,197.415771 375.958984,197.984222 376.384247,199.881744 
	C376.841675,201.922760 375.616119,203.398514 374.160889,204.594116 
	C370.617981,207.504913 366.117218,208.416367 361.155609,210.434982 
	C370.761200,212.678329 379.829010,213.570221 388.359375,216.645279 
	C391.641266,217.828323 394.949982,219.001373 398.082520,220.517700 
	C401.716797,222.276901 405.415283,224.357620 405.232361,229.190903 
	C405.046112,234.111191 401.330811,236.288147 397.407562,237.969711 
	C390.939240,240.742126 384.060516,242.083374 377.169708,243.262589 
	C359.724579,246.247955 342.075348,246.849670 324.445984,247.144470 
	C285.631683,247.793549 246.870468,245.872025 208.116364,244.023361 
	C205.586884,243.902695 201.063843,244.684647 201.337524,241.064835 
	C201.623886,237.276840 205.889038,239.052307 208.459732,239.193710 
	C223.422089,240.016724 238.383560,240.803497 253.853546,240.941071 
M347.747162,208.429306 
	C354.429657,206.716705 361.172943,205.181610 367.492828,201.960999 
	C367.081970,201.515106 366.908966,201.143677 366.680145,201.105301 
	C354.476929,199.058456 342.285797,199.767120 330.101929,201.319901 
	C329.782013,201.360672 329.461456,201.504181 329.171936,201.657791 
	C327.833313,202.367996 326.424957,203.134796 326.442169,204.878510 
	C326.461517,206.845688 328.191528,207.250519 329.594574,207.446548 
	C335.324738,208.247208 341.040649,209.474304 347.747162,208.429306 
z"/>
<path fill="#000000" opacity="1.000000" stroke="none" 
	d="
M427.967743,197.028549 
	C425.982697,194.173157 427.424744,192.658234 430.151611,191.970657 
	C435.970673,190.503372 441.763428,191.043823 447.354065,193.005325 
	C450.736206,194.191971 459.114166,210.249664 458.489319,213.929626 
	C462.178833,215.704453 466.036835,217.271866 469.601776,219.343582 
	C474.803101,222.366272 479.368805,226.291626 479.112122,232.950287 
	C478.855835,239.599228 473.984497,243.133942 468.622467,245.838730 
	C460.340027,250.016678 451.268311,251.694794 442.254120,253.137268 
	C424.985565,255.900574 407.554352,256.823883 390.066833,257.486481 
	C349.218994,259.034149 308.535614,255.831085 267.797760,254.113800 
	C265.810333,254.030014 263.835724,253.634720 261.855896,253.378769 
	C260.379669,253.187912 258.511078,253.209473 258.603577,251.147263 
	C258.704071,248.906281 260.655426,248.770706 262.347107,248.842697 
	C269.499298,249.147003 276.650269,249.493027 283.797699,249.894531 
	C293.600891,250.445267 303.394562,251.194473 313.202667,251.621323 
	C339.001312,252.744095 364.828156,253.521515 390.630981,252.550491 
	C412.555969,251.725372 434.560547,250.877441 455.907471,244.811630 
	C459.939392,243.665924 463.823944,242.239777 467.374512,239.992645 
	C474.092133,235.741135 474.457977,230.129456 468.145569,225.183456 
	C463.776001,221.759705 458.710846,219.464111 453.393921,218.018982 
	C438.079071,213.856506 422.671570,210.415039 406.659119,214.032654 
	C404.578003,214.502823 401.743042,214.749725 401.309540,212.027100 
	C400.890411,209.394989 403.854828,209.378189 405.641205,208.912827 
	C410.790619,207.571457 416.074219,206.703186 420.953156,204.455109 
	C422.115997,203.919312 423.431244,203.469025 424.104370,201.817230 
	C420.031860,198.447525 414.968475,198.806961 410.396088,198.582047 
	C401.466309,198.142792 392.421173,197.239426 383.626160,200.127106 
	C381.857117,200.707932 379.590363,200.781067 379.074646,198.477234 
	C378.510254,195.956146 380.594513,195.019867 382.689026,194.661789 
	C393.284943,192.850372 403.936340,193.426041 414.560791,194.228928 
	C418.852356,194.553253 423.178864,195.123520 427.887512,197.125656 
	C432.492004,201.399002 432.428802,201.978912 427.184601,208.229858 
	C435.603607,208.991211 443.751251,210.471130 452.887665,212.365814 
	C449.515411,208.244598 447.320068,204.798477 446.070068,200.775620 
	C444.773956,196.604340 441.143402,195.454712 437.689484,196.594101 
	C434.302643,197.711349 431.217865,197.287628 427.967743,197.028549 
z"/>
<path fill="#000000" opacity="1.000000" stroke="none" 
	d="
M526.872620,227.091827 
	C521.629272,217.241653 514.374451,211.960983 502.896057,212.377945 
	C497.085632,212.588989 491.190674,210.471725 484.854492,209.319977 
	C484.583466,215.671768 486.503326,221.337784 487.829041,227.034302 
	C494.757874,256.807037 512.599243,277.286194 540.789734,288.968842 
	C542.990601,289.880859 547.778381,290.040009 545.935974,293.926544 
	C544.403381,297.159485 540.904114,294.579498 538.420471,293.568573 
	C518.100220,285.297546 501.115326,273.078278 490.629456,253.145035 
	C484.351654,241.211075 481.153687,228.340302 478.668365,215.213898 
	C477.882935,211.065552 477.911255,206.459961 473.468414,203.875977 
	C472.466400,203.293182 471.978241,202.061859 472.429901,200.784821 
	C472.944794,199.329132 474.119873,198.815857 475.559692,198.765152 
	C477.094666,198.711075 478.640076,198.912872 479.838196,199.875443 
	C489.598846,207.717453 501.427399,207.228333 512.846680,208.597214 
	C513.946411,200.463013 511.712219,197.311127 504.444092,196.963348 
	C489.495941,196.248154 474.544525,195.165955 459.586151,197.112823 
	C457.143555,197.430740 453.178314,198.311462 452.705139,195.066116 
	C452.172577,191.413376 456.309235,192.036041 458.674713,191.635849 
	C469.774231,189.757935 480.948364,190.990112 492.062775,191.429184 
	C498.854370,191.697479 505.719696,191.112427 512.480774,192.602783 
	C515.423340,193.251419 517.649780,194.557755 518.073547,197.488754 
	C519.347595,206.301743 524.363342,213.166611 529.465088,219.959290 
	C535.866455,228.482361 542.490112,236.838470 549.019165,245.265640 
	C549.937439,246.450867 550.908386,247.598297 551.773254,248.821014 
	C552.830811,250.316254 554.300476,252.129837 552.524658,253.686005 
	C550.509155,255.452271 548.414490,254.289154 546.892029,252.489822 
	C544.417480,249.565201 542.026367,246.567902 539.660828,243.553589 
	C535.444397,238.180862 531.273254,232.772614 526.872620,227.091827 
z"/>
<path fill="#000000" opacity="1.000000" stroke="none" 
	d="
M107.002609,140.275696 
	C83.180473,139.765060 59.978657,137.986252 37.095901,133.232727 
	C34.430588,132.679047 29.351833,132.804581 30.115484,129.474777 
	C31.079004,125.273453 35.418152,128.270996 38.150223,128.847855 
	C53.165890,132.018326 68.390480,133.529037 83.648758,134.632782 
	C105.944077,136.245575 128.235138,135.649551 150.495239,133.721573 
	C155.318222,133.303848 160.067352,132.482773 164.646622,130.878433 
	C166.356262,130.279465 168.381165,129.733673 168.541962,127.520218 
	C168.678513,125.640533 167.167114,124.433235 165.705582,123.706123 
	C157.238922,119.493896 148.516174,116.769920 138.834808,118.792328 
	C127.198433,121.223145 115.447525,122.149239 103.611053,120.356766 
	C101.552681,120.045059 98.670631,120.086563 98.573097,117.316818 
	C98.465691,114.266579 101.365952,114.062950 103.666939,113.701439 
	C114.730873,111.963158 125.838570,111.358955 137.006821,112.509430 
	C139.432617,112.759315 142.151062,112.808037 142.824722,110.026642 
	C143.478378,107.327789 140.677917,106.519455 138.805267,105.714035 
	C134.787155,103.985825 130.443161,103.431374 126.118248,103.401184 
	C116.811256,103.336235 107.462242,102.655830 98.252075,104.774292 
	C96.184151,105.249954 93.795364,105.083344 93.369499,102.727768 
	C92.947289,100.392357 95.346901,99.964165 97.154610,99.744179 
	C111.610435,97.984940 126.056442,97.650528 140.343063,100.990143 
	C147.358643,102.630081 149.602203,105.738335 149.860443,113.354729 
	C154.182037,114.520195 158.664993,115.618172 163.072098,116.964409 
	C165.285431,117.640503 167.449142,118.608208 169.478165,119.728584 
	C172.625870,121.466667 175.540207,123.689499 175.134918,127.789963 
	C174.746811,131.716537 171.835999,133.800613 168.445358,135.154434 
	C161.223328,138.038086 153.506821,138.400360 145.917816,139.165771 
	C133.152130,140.453262 120.322754,140.425858 107.002609,140.275696 
z"/>
<path fill="#000000" opacity="1.000000" stroke="none" 
	d="
M351.440643,91.499939 
	C348.727997,83.581612 345.294098,76.324806 343.437653,68.528587 
	C342.978790,66.601448 342.664795,64.603416 342.593964,62.626873 
	C342.353424,55.913006 345.138458,52.044064 350.568085,51.294968 
	C356.418823,50.487774 361.793060,54.173717 363.445404,59.959534 
	C364.348999,63.123653 364.269135,66.188805 363.280334,69.290421 
	C362.653809,71.255684 361.613220,72.639038 359.316895,72.034332 
	C357.285034,71.499252 357.010193,70.053650 357.368134,68.131737 
	C357.919952,65.169281 358.170166,62.155338 356.575775,59.369328 
	C355.532623,57.546478 354.143921,55.988689 351.819611,56.489742 
	C349.322540,57.028038 348.325256,59.007122 348.430084,61.373772 
	C348.615845,65.567154 349.882660,69.542274 351.341797,73.444626 
	C356.644104,87.625443 362.216461,101.721367 364.763367,116.755249 
	C367.080414,130.432358 367.671417,144.217804 367.205414,158.054581 
	C367.133484,160.189987 366.638031,162.354080 366.032654,164.415085 
	C365.541321,166.087906 364.416656,167.403946 362.321899,166.862305 
	C360.343445,166.350739 360.059113,165.149445 360.228912,163.109344 
	C362.253937,138.778442 360.176178,114.918739 351.440643,91.499939 
z"/>
<path fill="#000000" opacity="1.000000" stroke="none" 
	d="
M302.439240,230.527588 
	C304.936279,232.079269 309.950806,231.371628 308.701294,235.095642 
	C307.377869,239.040009 303.571045,235.878021 300.923584,235.306824 
	C298.829926,234.855087 296.815613,233.945496 294.833008,233.084961 
	C286.492218,229.464645 278.585938,224.737473 269.160400,224.031189 
	C266.416992,223.825623 263.667114,222.703186 261.303772,221.009415 
	C259.445374,219.677536 257.869171,218.191391 258.725647,215.634735 
	C259.596130,213.036209 261.745087,212.151810 264.232758,212.179932 
	C267.849762,212.220810 270.938721,213.747437 273.911804,215.756409 
	C282.482452,221.547714 293.330505,221.149124 301.412598,214.859863 
	C303.693573,213.084885 305.972534,211.031952 305.439819,207.865005 
	C304.864868,204.446838 301.882507,203.111023 298.906403,202.449905 
	C289.871948,200.443008 280.671295,201.200729 271.522217,201.058167 
	C268.737427,201.014771 264.025421,202.434402 263.940918,198.789444 
	C263.842865,194.559189 268.731476,196.033951 271.577759,195.905426 
	C280.916840,195.483734 290.222626,196.090591 299.437195,197.723785 
	C301.553833,198.098938 303.714691,198.570007 305.675690,199.414032 
	C311.734161,202.021652 313.570221,207.569504 310.459320,213.397659 
	C308.049072,217.913269 304.084198,220.583145 299.445099,222.312866 
	C296.818634,223.292160 294.080841,223.972870 290.915680,224.932892 
	C294.301056,227.967758 298.408691,228.753922 302.439240,230.527588 
z"/>
<path fill="#000000" opacity="1.000000" stroke="none" 
	d="
M389.552124,74.337036 
	C391.704163,79.216270 395.207489,82.531128 398.766846,85.809052 
	C400.089691,87.027306 401.945068,88.288635 400.212097,90.325371 
	C398.873322,91.898819 397.064758,91.258453 395.691833,90.250443 
	C390.399536,86.364883 385.749298,81.868027 383.365326,75.558090 
	C381.707428,71.169960 383.099091,67.656410 387.247345,65.548546 
	C391.738922,63.266239 396.409760,63.394779 400.583954,65.967941 
	C404.252563,68.229446 404.513580,72.283096 404.190460,76.236229 
	C404.044830,78.017853 403.412231,79.574951 401.258911,79.559792 
	C399.267517,79.545761 398.278687,78.304924 398.039459,76.422760 
	C397.913818,75.434357 397.867554,74.435509 397.796448,73.440590 
	C397.604034,70.748528 396.518066,68.943527 393.468689,69.223068 
	C390.600189,69.486038 388.593262,70.546745 389.552124,74.337036 
z"/>
<path fill="#000000" opacity="1.000000" stroke="none" 
	d="
M503.842865,229.032837 
	C507.447357,227.075836 510.822571,226.216400 512.962036,230.322647 
	C513.904419,232.131393 513.429749,234.341324 511.688141,235.736404 
	C510.264618,236.876724 507.850555,236.947556 507.143250,235.743896 
	C505.919220,233.660828 501.094604,233.381912 503.842865,229.032837 
z"/>
</svg>